<?xml version="1.0" encoding="utf-8" standalone="no"?>
<!DOCTYPE svg PUBLIC "-//W3C//DTD SVG 1.1//EN"
  "http://www.w3.org/Graphics/SVG/1.1/DTD/svg11.dtd">
<!-- Created with matplotlib (https://matplotlib.org/) -->
<svg height="288pt" version="1.1" viewBox="0 0 432 288" width="432pt" xmlns="http://www.w3.org/2000/svg" xmlns:xlink="http://www.w3.org/1999/xlink">
 <metadata>
  <rdf:RDF xmlns:cc="http://creativecommons.org/ns#" xmlns:dc="http://purl.org/dc/elements/1.1/" xmlns:rdf="http://www.w3.org/1999/02/22-rdf-syntax-ns#">
   <cc:Work>
    <dc:type rdf:resource="http://purl.org/dc/dcmitype/StillImage"/>
    <dc:date>2022-05-19T12:02:44.336684</dc:date>
    <dc:format>image/svg+xml</dc:format>
    <dc:creator>
     <cc:Agent>
      <dc:title>Matplotlib v3.3.4, https://matplotlib.org/</dc:title>
     </cc:Agent>
    </dc:creator>
   </cc:Work>
  </rdf:RDF>
 </metadata>
 <defs>
  <style type="text/css">*{stroke-linecap:butt;stroke-linejoin:round;}</style>
 </defs>
 <g id="figure_1">
  <g id="patch_1">
   <path d="M 0 288 
L 432 288 
L 432 0 
L 0 0 
z
" style="fill:none;"/>
  </g>
  <g id="axes_1">
   <g id="patch_2">
    <path d="M 54 252 
L 388.8 252 
L 388.8 34.56 
L 54 34.56 
z
" style="fill:#ffffff;"/>
   </g>
   <g id="PathCollection_1">
    <path clip-path="url(#pf3ad6263b7)" d="M 60.832653 252 
L 67.665306 252 
L 74.497959 252 
L 81.330612 252 
L 88.163265 252 
L 94.995918 252 
L 101.828571 252 
L 108.661224 252 
L 115.493878 252 
L 122.326531 252 
L 129.159184 252 
L 135.991837 252 
L 142.82449 252 
L 149.657143 252 
L 156.489796 252 
L 163.322449 252 
L 170.155102 252 
L 176.987755 252 
L 183.820408 252 
L 190.653061 252 
L 197.485714 252 
L 204.318367 252 
L 211.15102 252 
L 217.983673 252 
L 224.816327 252 
L 231.64898 252 
L 238.481633 252 
L 245.314286 252 
L 252.146939 252 
L 258.979592 252 
L 265.812245 252 
L 272.644898 252 
L 279.477551 252 
L 286.310204 252 
L 293.142857 252 
L 299.97551 252 
L 306.808163 252 
L 313.640816 252 
L 320.473469 252 
L 327.306122 252 
L 334.138776 252 
L 340.971429 252 
L 347.804082 252 
L 354.636735 252 
L 361.469388 252 
L 368.302041 252 
L 375.134694 252 
L 381.967347 252 
L 388.8 252 
L 388.8 247.562449 
L 388.8 243.124898 
L 388.8 238.687347 
L 388.8 234.249796 
L 388.8 229.812245 
L 388.8 225.374694 
L 388.8 220.937143 
L 388.8 216.499592 
L 388.8 212.062041 
L 388.8 207.62449 
L 388.8 203.186939 
L 388.8 198.749388 
L 388.8 194.311837 
L 388.8 189.874286 
L 388.8 185.436735 
L 388.8 180.999184 
L 388.8 176.561633 
L 388.8 172.124082 
L 388.8 167.686531 
L 388.8 163.24898 
L 388.8 158.811429 
L 388.8 154.373878 
L 388.8 149.936327 
L 388.8 145.498776 
L 388.8 141.061224 
L 388.8 136.623673 
L 388.8 132.186122 
L 388.8 127.748571 
L 388.8 123.31102 
L 388.8 118.873469 
L 388.8 114.435918 
L 388.8 109.998367 
L 388.8 105.560816 
L 388.8 101.123265 
L 388.8 96.685714 
L 388.8 92.248163 
L 388.8 87.810612 
L 388.8 83.373061 
L 388.8 78.93551 
L 388.8 74.497959 
L 388.8 70.060408 
L 388.8 65.622857 
L 388.8 61.185306 
L 388.8 56.747755 
L 388.8 52.310204 
L 388.8 47.872653 
L 388.8 43.435102 
L 388.8 38.997551 
L 388.8 34.56 
L 381.967347 34.56 
L 375.134694 34.56 
L 368.302041 34.56 
L 361.469388 34.56 
L 354.636735 34.56 
L 347.804082 34.56 
L 340.971429 34.56 
L 334.138776 34.56 
L 327.306122 34.56 
L 320.473469 34.56 
L 313.640816 34.56 
L 306.808163 34.56 
L 299.97551 34.56 
L 293.142857 34.56 
L 286.310204 34.56 
L 279.477551 34.56 
L 272.644898 34.56 
L 265.812245 34.56 
L 258.979592 34.56 
L 252.146939 34.56 
L 245.314286 34.56 
L 238.481633 34.56 
L 231.64898 34.56 
L 224.816327 34.56 
L 217.983673 34.56 
L 211.15102 34.56 
L 204.318367 34.56 
L 197.485714 34.56 
L 190.653061 34.56 
L 183.820408 34.56 
L 176.987755 34.56 
L 170.155102 34.56 
L 163.322449 34.56 
L 156.489796 34.56 
L 149.657143 34.56 
L 142.82449 34.56 
L 135.991837 34.56 
L 129.159184 34.56 
L 122.326531 34.56 
L 115.493878 34.56 
L 108.661224 34.56 
L 101.828571 34.56 
L 94.995918 34.56 
L 88.163265 34.56 
L 81.330612 34.56 
L 74.497959 34.56 
L 67.665306 34.56 
L 60.832653 34.56 
L 54 34.56 
L 54 38.997551 
L 54 43.435102 
L 54 47.872653 
L 54 52.310204 
L 54 56.747755 
L 54 61.185306 
L 54 65.622857 
L 54 70.060408 
L 54 74.497959 
L 54 78.93551 
L 54 83.373061 
L 54 87.810612 
L 54 92.248163 
L 54 96.685714 
L 54 101.123265 
L 54 105.560816 
L 54 109.998367 
L 54 114.435918 
L 54 118.873469 
L 54 123.31102 
L 54 127.748571 
L 54 132.186122 
L 54 136.623673 
L 54 141.061224 
L 54 145.498776 
L 54 149.936327 
L 54 154.373878 
L 54 158.811429 
L 54 163.24898 
L 54 167.686531 
L 54 172.124082 
L 54 176.561633 
L 54 180.999184 
L 54 185.436735 
L 54 189.874286 
L 54 194.311837 
L 54 198.749388 
L 54 203.186939 
L 54 207.62449 
L 54 212.062041 
L 54 216.499592 
L 54 220.937143 
L 54 225.374694 
L 54 229.812245 
L 54 234.249796 
L 54 238.687347 
L 54 243.124898 
L 54 247.562449 
L 54 252 
z
M 95.68979 127.748571 
L 94.995918 127.58664 
L 88.163265 125.432223 
L 83.368368 123.31102 
L 81.330612 122.383676 
L 75.226987 118.873469 
L 74.497959 118.395687 
L 69.168008 114.435918 
L 67.665306 113.017065 
L 64.541848 109.998367 
L 61.255978 105.560816 
L 60.832653 104.777524 
L 58.614548 101.123265 
L 56.909712 96.685714 
L 56.029381 92.248163 
L 55.858749 87.810612 
L 56.376024 83.373061 
L 57.647731 78.93551 
L 59.843169 74.497959 
L 60.832653 73.070742 
L 62.72999 70.060408 
L 66.764533 65.622857 
L 67.665306 64.819996 
L 71.927233 61.185306 
L 74.497959 59.399242 
L 78.915217 56.747755 
L 81.330612 55.435385 
L 88.163265 52.509134 
L 88.75822 52.310204 
L 94.995918 50.135179 
L 101.828571 48.54862 
L 106.380763 47.872653 
L 108.661224 47.467271 
L 115.493878 46.787864 
L 122.326531 46.636233 
L 129.159184 46.993008 
L 135.772112 47.872653 
L 135.991837 47.896465 
L 142.82449 49.100487 
L 149.657143 50.986545 
L 153.158299 52.310204 
L 156.489796 53.53825 
L 162.940914 56.747755 
L 163.322449 56.952284 
L 169.882307 61.185306 
L 170.155102 61.396052 
L 175.206935 65.622857 
L 176.987755 67.62181 
L 179.205029 70.060408 
L 182.134817 74.497959 
L 183.820408 78.437455 
L 184.070114 78.93551 
L 185.497676 83.373061 
L 186.078347 87.810612 
L 185.886802 92.248163 
L 184.898581 96.685714 
L 183.820408 99.287336 
L 183.184467 101.123265 
L 180.824399 105.560816 
L 177.214496 109.998367 
L 176.987755 110.22627 
L 172.797815 114.435918 
L 170.155102 116.490554 
L 166.765823 118.873469 
L 163.322449 120.962808 
L 158.565876 123.31102 
L 156.489796 124.290886 
L 149.657143 126.829698 
L 146.1753 127.748571 
L 142.82449 128.720659 
L 135.991837 130.093484 
L 129.159184 130.881923 
L 122.326531 131.190694 
L 115.493878 131.059466 
L 108.661224 130.471472 
L 101.828571 129.349897 
z
" style="fill:#481b6d;"/>
   </g>
   <g id="PathCollection_2">
    <path clip-path="url(#pf3ad6263b7)" d="M 101.828571 129.349897 
L 108.661224 130.471472 
L 115.493878 131.059466 
L 122.326531 131.190694 
L 129.159184 130.881923 
L 135.991837 130.093484 
L 142.82449 128.720659 
L 146.1753 127.748571 
L 149.657143 126.829698 
L 156.489796 124.290886 
L 158.565876 123.31102 
L 163.322449 120.962808 
L 166.765823 118.873469 
L 170.155102 116.490554 
L 172.797815 114.435918 
L 176.987755 110.22627 
L 177.214496 109.998367 
L 180.824399 105.560816 
L 183.184467 101.123265 
L 183.820408 99.287336 
L 184.898581 96.685714 
L 185.886802 92.248163 
L 186.078347 87.810612 
L 185.497676 83.373061 
L 184.070114 78.93551 
L 183.820408 78.437455 
L 182.134817 74.497959 
L 179.205029 70.060408 
L 176.987755 67.62181 
L 175.206935 65.622857 
L 170.155102 61.396052 
L 169.882307 61.185306 
L 163.322449 56.952284 
L 162.940914 56.747755 
L 156.489796 53.53825 
L 153.158299 52.310204 
L 149.657143 50.986545 
L 142.82449 49.100487 
L 135.991837 47.896465 
L 135.772112 47.872653 
L 129.159184 46.993008 
L 122.326531 46.636233 
L 115.493878 46.787864 
L 108.661224 47.467271 
L 106.380763 47.872653 
L 101.828571 48.54862 
L 94.995918 50.135179 
L 88.75822 52.310204 
L 88.163265 52.509134 
L 81.330612 55.435385 
L 78.915217 56.747755 
L 74.497959 59.399242 
L 71.927233 61.185306 
L 67.665306 64.819996 
L 66.764533 65.622857 
L 62.72999 70.060408 
L 60.832653 73.070742 
L 59.843169 74.497959 
L 57.647731 78.93551 
L 56.376024 83.373061 
L 55.858749 87.810612 
L 56.029381 92.248163 
L 56.909712 96.685714 
L 58.614548 101.123265 
L 60.832653 104.777524 
L 61.255978 105.560816 
L 64.541848 109.998367 
L 67.665306 113.017065 
L 69.168008 114.435918 
L 74.497959 118.395687 
L 75.226987 118.873469 
L 81.330612 122.383676 
L 83.368368 123.31102 
L 88.163265 125.432223 
L 94.995918 127.58664 
L 95.68979 127.748571 
z
M 97.983582 118.873469 
L 94.995918 117.911954 
L 88.163265 114.796183 
L 87.521429 114.435918 
L 81.330612 110.37254 
L 80.840323 109.998367 
L 76.117004 105.560816 
L 74.497959 103.38427 
L 72.816849 101.123265 
L 70.635874 96.685714 
L 69.509677 92.248163 
L 69.291388 87.810612 
L 69.953132 83.373061 
L 71.580012 78.93551 
L 74.388609 74.497959 
L 74.497959 74.369197 
L 78.235843 70.060408 
L 81.330612 67.476077 
L 83.857833 65.622857 
L 88.163265 63.022143 
L 92.065262 61.185306 
L 94.995918 59.911825 
L 101.828571 57.750119 
L 106.812326 56.747755 
L 108.661224 56.350138 
L 115.493878 55.523304 
L 122.326531 55.33877 
L 129.159184 55.772963 
L 135.216602 56.747755 
L 135.991837 56.86155 
L 142.82449 58.502045 
L 149.657143 61.071823 
L 149.898012 61.185306 
L 156.489796 64.606255 
L 158.067246 65.622857 
L 163.322449 69.803354 
L 163.614209 70.060408 
L 167.629524 74.497959 
L 170.155102 78.848585 
L 170.207896 78.93551 
L 171.954778 83.373061 
L 172.665334 87.810612 
L 172.430944 92.248163 
L 171.221676 96.685714 
L 170.155102 98.810249 
L 169.068083 101.123265 
L 165.833578 105.560816 
L 163.322449 108.008709 
L 161.108477 109.998367 
L 156.489796 113.225912 
L 154.38388 114.435918 
L 149.657143 116.817246 
L 144.007088 118.873469 
L 142.82449 119.294334 
L 135.991837 121.060492 
L 129.159184 122.07483 
L 122.326531 122.472068 
L 115.493878 122.30324 
L 108.661224 121.546779 
L 101.828571 120.103857 
z
" style="fill:#3f4788;"/>
   </g>
   <g id="PathCollection_3">
    <path clip-path="url(#pf3ad6263b7)" d="M 101.828571 120.103857 
L 108.661224 121.546779 
L 115.493878 122.30324 
L 122.326531 122.472068 
L 129.159184 122.07483 
L 135.991837 121.060492 
L 142.82449 119.294334 
L 144.007088 118.873469 
L 149.657143 116.817246 
L 154.38388 114.435918 
L 156.489796 113.225912 
L 161.108477 109.998367 
L 163.322449 108.008709 
L 165.833578 105.560816 
L 169.068083 101.123265 
L 170.155102 98.810249 
L 171.221676 96.685714 
L 172.430944 92.248163 
L 172.665334 87.810612 
L 171.954778 83.373061 
L 170.207896 78.93551 
L 170.155102 78.848585 
L 167.629524 74.497959 
L 163.614209 70.060408 
L 163.322449 69.803354 
L 158.067246 65.622857 
L 156.489796 64.606255 
L 149.898012 61.185306 
L 149.657143 61.071823 
L 142.82449 58.502045 
L 135.991837 56.86155 
L 135.216602 56.747755 
L 129.159184 55.772963 
L 122.326531 55.33877 
L 115.493878 55.523304 
L 108.661224 56.350138 
L 106.812326 56.747755 
L 101.828571 57.750119 
L 94.995918 59.911825 
L 92.065262 61.185306 
L 88.163265 63.022143 
L 83.857833 65.622857 
L 81.330612 67.476077 
L 78.235843 70.060408 
L 74.497959 74.369197 
L 74.388609 74.497959 
L 71.580012 78.93551 
L 69.953132 83.373061 
L 69.291388 87.810612 
L 69.509677 92.248163 
L 70.635874 96.685714 
L 72.816849 101.123265 
L 74.497959 103.38427 
L 76.117004 105.560816 
L 80.840323 109.998367 
L 81.330612 110.37254 
L 87.521429 114.435918 
L 88.163265 114.796183 
L 94.995918 117.911954 
L 97.983582 118.873469 
z
M 106.767426 114.435918 
L 101.828571 113.116538 
L 94.995918 110.247052 
L 94.537272 109.998367 
L 88.163265 105.805495 
L 87.854707 105.560816 
L 83.52673 101.123265 
L 81.330612 97.53727 
L 80.822402 96.685714 
L 79.346304 92.248163 
L 79.060195 87.810612 
L 79.927538 83.373061 
L 81.330612 80.381239 
L 82.012014 78.93551 
L 85.451615 74.497959 
L 88.163265 72.085533 
L 90.850759 70.060408 
L 94.995918 67.601105 
L 99.5185 65.622857 
L 101.828571 64.718192 
L 108.661224 62.897415 
L 115.493878 61.94286 
L 122.326531 61.729821 
L 129.159184 62.231084 
L 135.991837 63.511045 
L 142.502564 65.622857 
L 142.82449 65.736609 
L 149.657143 69.135252 
L 151.095344 70.060408 
L 156.444667 74.497959 
L 156.489796 74.550182 
L 159.947627 78.93551 
L 161.977323 83.373061 
L 162.802915 87.810612 
L 162.530578 92.248163 
L 161.125535 96.685714 
L 158.40455 101.123265 
L 156.489796 103.199079 
L 154.052055 105.560816 
L 149.657143 108.688837 
L 147.313669 109.998367 
L 142.82449 112.118419 
L 135.991837 114.296041 
L 135.274398 114.435918 
L 129.159184 115.62046 
L 122.326531 116.14277 
L 115.493878 115.920786 
L 108.661224 114.926149 
z
" style="fill:#2e6e8e;"/>
   </g>
   <g id="PathCollection_4">
    <path clip-path="url(#pf3ad6263b7)" d="M 108.661224 114.926149 
L 115.493878 115.920786 
L 122.326531 116.14277 
L 129.159184 115.62046 
L 135.274398 114.435918 
L 135.991837 114.296041 
L 142.82449 112.118419 
L 147.313669 109.998367 
L 149.657143 108.688837 
L 154.052055 105.560816 
L 156.489796 103.199079 
L 158.40455 101.123265 
L 161.125535 96.685714 
L 162.530578 92.248163 
L 162.802915 87.810612 
L 161.977323 83.373061 
L 159.947627 78.93551 
L 156.489796 74.550182 
L 156.444667 74.497959 
L 151.095344 70.060408 
L 149.657143 69.135252 
L 142.82449 65.736609 
L 142.502564 65.622857 
L 135.991837 63.511045 
L 129.159184 62.231084 
L 122.326531 61.729821 
L 115.493878 61.94286 
L 108.661224 62.897415 
L 101.828571 64.718192 
L 99.5185 65.622857 
L 94.995918 67.601105 
L 90.850759 70.060408 
L 88.163265 72.085533 
L 85.451615 74.497959 
L 82.012014 78.93551 
L 81.330612 80.381239 
L 79.927538 83.373061 
L 79.060195 87.810612 
L 79.346304 92.248163 
L 80.822402 96.685714 
L 81.330612 97.53727 
L 83.52673 101.123265 
L 87.854707 105.560816 
L 88.163265 105.805495 
L 94.537272 109.998367 
L 94.995918 110.247052 
L 101.828571 113.116538 
L 106.767426 114.435918 
z
M 114.105665 109.998367 
L 108.661224 108.982427 
L 101.828571 106.576489 
L 99.852931 105.560816 
L 94.995918 102.354427 
L 93.532315 101.123265 
L 89.9357 96.685714 
L 88.163265 92.460993 
L 88.079337 92.248163 
L 87.722895 87.810612 
L 88.163265 85.96857 
L 88.809801 83.373061 
L 91.492665 78.93551 
L 94.995918 75.488156 
L 96.251681 74.497959 
L 101.828571 71.281344 
L 104.989623 70.060408 
L 108.661224 68.846853 
L 115.493878 67.607825 
L 122.326531 67.331298 
L 129.159184 67.981944 
L 135.991837 69.643355 
L 137.07553 70.060408 
L 142.82449 72.689265 
L 145.644172 74.497959 
L 149.657143 78.07623 
L 150.462514 78.93551 
L 153.107447 83.373061 
L 154.183292 87.810612 
L 153.828405 92.248163 
L 151.997466 96.685714 
L 149.657143 99.706512 
L 148.37086 101.123265 
L 142.82449 105.186852 
L 142.12324 105.560816 
L 135.991837 108.171588 
L 129.159184 109.862904 
L 127.793918 109.998367 
L 122.326531 110.517853 
L 115.493878 110.240306 
z
" style="fill:#21918c;"/>
   </g>
   <g id="PathCollection_5">
    <path clip-path="url(#pf3ad6263b7)" d="M 115.493878 110.240306 
L 122.326531 110.517853 
L 127.793918 109.998367 
L 129.159184 109.862904 
L 135.991837 108.171588 
L 142.12324 105.560816 
L 142.82449 105.186852 
L 148.37086 101.123265 
L 149.657143 99.706512 
L 151.997466 96.685714 
L 153.828405 92.248163 
L 154.183292 87.810612 
L 153.107447 83.373061 
L 150.462514 78.93551 
L 149.657143 78.07623 
L 145.644172 74.497959 
L 142.82449 72.689265 
L 137.07553 70.060408 
L 135.991837 69.643355 
L 129.159184 67.981944 
L 122.326531 67.331298 
L 115.493878 67.607825 
L 108.661224 68.846853 
L 104.989623 70.060408 
L 101.828571 71.281344 
L 96.251681 74.497959 
L 94.995918 75.488156 
L 91.492665 78.93551 
L 88.809801 83.373061 
L 88.163265 85.96857 
L 87.722895 87.810612 
L 88.079337 92.248163 
L 88.163265 92.460993 
L 89.9357 96.685714 
L 93.532315 101.123265 
L 94.995918 102.354427 
L 99.852931 105.560816 
L 101.828571 106.576489 
L 108.661224 108.982427 
L 114.105665 109.998367 
z
M 105.309316 101.123265 
L 101.828571 98.809971 
L 99.550145 96.685714 
L 96.966542 92.248163 
L 96.465767 87.810612 
L 97.983871 83.373061 
L 101.716089 78.93551 
L 101.828571 78.848824 
L 108.661224 75.111008 
L 110.720093 74.497959 
L 115.493878 73.367907 
L 122.326531 73.000876 
L 129.159184 73.86447 
L 131.222557 74.497959 
L 135.991837 76.370711 
L 140.009973 78.93551 
L 142.82449 81.812962 
L 144.006815 83.373061 
L 145.441807 87.810612 
L 144.968448 92.248163 
L 142.82449 96.168151 
L 142.466672 96.685714 
L 136.791658 101.123265 
L 135.991837 101.55968 
L 129.159184 103.925846 
L 122.326531 104.852491 
L 115.493878 104.458663 
L 108.661224 102.694051 
z
" style="fill:#2db27d;"/>
   </g>
   <g id="PathCollection_6">
    <path clip-path="url(#pf3ad6263b7)" d="M 108.661224 102.694051 
L 115.493878 104.458663 
L 122.326531 104.852491 
L 129.159184 103.925846 
L 135.991837 101.55968 
L 136.791658 101.123265 
L 142.466672 96.685714 
L 142.82449 96.168151 
L 144.968448 92.248163 
L 145.441807 87.810612 
L 144.006815 83.373061 
L 142.82449 81.812962 
L 140.009973 78.93551 
L 135.991837 76.370711 
L 131.222557 74.497959 
L 129.159184 73.86447 
L 122.326531 73.000876 
L 115.493878 73.367907 
L 110.720093 74.497959 
L 108.661224 75.111008 
L 101.828571 78.848824 
L 101.716089 78.93551 
L 97.983871 83.373061 
L 96.465767 87.810612 
L 96.966542 92.248163 
L 99.550145 96.685714 
L 101.828571 98.809971 
L 105.309316 101.123265 
z
M 114.026725 96.685714 
L 108.661224 93.057827 
L 107.968896 92.248163 
L 107.201289 87.810612 
L 108.661224 84.994277 
L 110.084848 83.373061 
L 115.493878 80.739124 
L 122.326531 79.987954 
L 129.159184 81.755396 
L 131.720582 83.373061 
L 134.715926 87.810612 
L 133.727856 92.248163 
L 129.159184 96.246273 
L 127.936915 96.685714 
L 122.326531 97.856121 
L 115.493878 97.247119 
z
" style="fill:#73d056;"/>
   </g>
   <g id="PathCollection_7">
    <path clip-path="url(#pf3ad6263b7)" d="M 115.493878 97.247119 
L 122.326531 97.856121 
L 127.936915 96.685714 
L 129.159184 96.246273 
L 133.727856 92.248163 
L 134.715926 87.810612 
L 131.720582 83.373061 
L 129.159184 81.755396 
L 122.326531 79.987954 
L 115.493878 80.739124 
L 110.084848 83.373061 
L 108.661224 84.994277 
L 107.201289 87.810612 
L 107.968896 92.248163 
L 108.661224 93.057827 
L 114.026725 96.685714 
z
" style="fill:#d0e11c;"/>
   </g>
   <g id="matplotlib.axis_1">
    <g id="xtick_1">
     <g id="line2d_1">
      <defs>
       <path d="M 0 0 
L 0 3.5 
" id="m98ece6fdd5" style="stroke:#000000;stroke-width:0.8;"/>
      </defs>
      <g>
       <use style="stroke:#000000;stroke-width:0.8;" x="54" xlink:href="#m98ece6fdd5" y="252"/>
      </g>
     </g>
     <g id="text_1">
      <!-- 0.0 -->
      <g transform="translate(46.048437 266.598437)scale(0.1 -0.1)">
       <defs>
        <path d="M 31.78125 66.40625 
Q 24.171875 66.40625 20.328125 58.90625 
Q 16.5 51.421875 16.5 36.375 
Q 16.5 21.390625 20.328125 13.890625 
Q 24.171875 6.390625 31.78125 6.390625 
Q 39.453125 6.390625 43.28125 13.890625 
Q 47.125 21.390625 47.125 36.375 
Q 47.125 51.421875 43.28125 58.90625 
Q 39.453125 66.40625 31.78125 66.40625 
z
M 31.78125 74.21875 
Q 44.046875 74.21875 50.515625 64.515625 
Q 56.984375 54.828125 56.984375 36.375 
Q 56.984375 17.96875 50.515625 8.265625 
Q 44.046875 -1.421875 31.78125 -1.421875 
Q 19.53125 -1.421875 13.0625 8.265625 
Q 6.59375 17.96875 6.59375 36.375 
Q 6.59375 54.828125 13.0625 64.515625 
Q 19.53125 74.21875 31.78125 74.21875 
z
" id="DejaVuSans-48"/>
        <path d="M 10.6875 12.40625 
L 21 12.40625 
L 21 0 
L 10.6875 0 
z
" id="DejaVuSans-46"/>
       </defs>
       <use xlink:href="#DejaVuSans-48"/>
       <use x="63.623047" xlink:href="#DejaVuSans-46"/>
       <use x="95.410156" xlink:href="#DejaVuSans-48"/>
      </g>
     </g>
    </g>
    <g id="xtick_2">
     <g id="line2d_2">
      <g>
       <use style="stroke:#000000;stroke-width:0.8;" x="120.96" xlink:href="#m98ece6fdd5" y="252"/>
      </g>
     </g>
     <g id="text_2">
      <!-- 0.2 -->
      <g transform="translate(113.008438 266.598437)scale(0.1 -0.1)">
       <defs>
        <path d="M 19.1875 8.296875 
L 53.609375 8.296875 
L 53.609375 0 
L 7.328125 0 
L 7.328125 8.296875 
Q 12.9375 14.109375 22.625 23.890625 
Q 32.328125 33.6875 34.8125 36.53125 
Q 39.546875 41.84375 41.421875 45.53125 
Q 43.3125 49.21875 43.3125 52.78125 
Q 43.3125 58.59375 39.234375 62.25 
Q 35.15625 65.921875 28.609375 65.921875 
Q 23.96875 65.921875 18.8125 64.3125 
Q 13.671875 62.703125 7.8125 59.421875 
L 7.8125 69.390625 
Q 13.765625 71.78125 18.9375 73 
Q 24.125 74.21875 28.421875 74.21875 
Q 39.75 74.21875 46.484375 68.546875 
Q 53.21875 62.890625 53.21875 53.421875 
Q 53.21875 48.921875 51.53125 44.890625 
Q 49.859375 40.875 45.40625 35.40625 
Q 44.1875 33.984375 37.640625 27.21875 
Q 31.109375 20.453125 19.1875 8.296875 
z
" id="DejaVuSans-50"/>
       </defs>
       <use xlink:href="#DejaVuSans-48"/>
       <use x="63.623047" xlink:href="#DejaVuSans-46"/>
       <use x="95.410156" xlink:href="#DejaVuSans-50"/>
      </g>
     </g>
    </g>
    <g id="xtick_3">
     <g id="line2d_3">
      <g>
       <use style="stroke:#000000;stroke-width:0.8;" x="187.92" xlink:href="#m98ece6fdd5" y="252"/>
      </g>
     </g>
     <g id="text_3">
      <!-- 0.4 -->
      <g transform="translate(179.968438 266.598437)scale(0.1 -0.1)">
       <defs>
        <path d="M 37.796875 64.3125 
L 12.890625 25.390625 
L 37.796875 25.390625 
z
M 35.203125 72.90625 
L 47.609375 72.90625 
L 47.609375 25.390625 
L 58.015625 25.390625 
L 58.015625 17.1875 
L 47.609375 17.1875 
L 47.609375 0 
L 37.796875 0 
L 37.796875 17.1875 
L 4.890625 17.1875 
L 4.890625 26.703125 
z
" id="DejaVuSans-52"/>
       </defs>
       <use xlink:href="#DejaVuSans-48"/>
       <use x="63.623047" xlink:href="#DejaVuSans-46"/>
       <use x="95.410156" xlink:href="#DejaVuSans-52"/>
      </g>
     </g>
    </g>
    <g id="xtick_4">
     <g id="line2d_4">
      <g>
       <use style="stroke:#000000;stroke-width:0.8;" x="254.88" xlink:href="#m98ece6fdd5" y="252"/>
      </g>
     </g>
     <g id="text_4">
      <!-- 0.6 -->
      <g transform="translate(246.928438 266.598437)scale(0.1 -0.1)">
       <defs>
        <path d="M 33.015625 40.375 
Q 26.375 40.375 22.484375 35.828125 
Q 18.609375 31.296875 18.609375 23.390625 
Q 18.609375 15.53125 22.484375 10.953125 
Q 26.375 6.390625 33.015625 6.390625 
Q 39.65625 6.390625 43.53125 10.953125 
Q 47.40625 15.53125 47.40625 23.390625 
Q 47.40625 31.296875 43.53125 35.828125 
Q 39.65625 40.375 33.015625 40.375 
z
M 52.59375 71.296875 
L 52.59375 62.3125 
Q 48.875 64.0625 45.09375 64.984375 
Q 41.3125 65.921875 37.59375 65.921875 
Q 27.828125 65.921875 22.671875 59.328125 
Q 17.53125 52.734375 16.796875 39.40625 
Q 19.671875 43.65625 24.015625 45.921875 
Q 28.375 48.1875 33.59375 48.1875 
Q 44.578125 48.1875 50.953125 41.515625 
Q 57.328125 34.859375 57.328125 23.390625 
Q 57.328125 12.15625 50.6875 5.359375 
Q 44.046875 -1.421875 33.015625 -1.421875 
Q 20.359375 -1.421875 13.671875 8.265625 
Q 6.984375 17.96875 6.984375 36.375 
Q 6.984375 53.65625 15.1875 63.9375 
Q 23.390625 74.21875 37.203125 74.21875 
Q 40.921875 74.21875 44.703125 73.484375 
Q 48.484375 72.75 52.59375 71.296875 
z
" id="DejaVuSans-54"/>
       </defs>
       <use xlink:href="#DejaVuSans-48"/>
       <use x="63.623047" xlink:href="#DejaVuSans-46"/>
       <use x="95.410156" xlink:href="#DejaVuSans-54"/>
      </g>
     </g>
    </g>
    <g id="xtick_5">
     <g id="line2d_5">
      <g>
       <use style="stroke:#000000;stroke-width:0.8;" x="321.84" xlink:href="#m98ece6fdd5" y="252"/>
      </g>
     </g>
     <g id="text_5">
      <!-- 0.8 -->
      <g transform="translate(313.888438 266.598437)scale(0.1 -0.1)">
       <defs>
        <path d="M 31.78125 34.625 
Q 24.75 34.625 20.71875 30.859375 
Q 16.703125 27.09375 16.703125 20.515625 
Q 16.703125 13.921875 20.71875 10.15625 
Q 24.75 6.390625 31.78125 6.390625 
Q 38.8125 6.390625 42.859375 10.171875 
Q 46.921875 13.96875 46.921875 20.515625 
Q 46.921875 27.09375 42.890625 30.859375 
Q 38.875 34.625 31.78125 34.625 
z
M 21.921875 38.8125 
Q 15.578125 40.375 12.03125 44.71875 
Q 8.5 49.078125 8.5 55.328125 
Q 8.5 64.0625 14.71875 69.140625 
Q 20.953125 74.21875 31.78125 74.21875 
Q 42.671875 74.21875 48.875 69.140625 
Q 55.078125 64.0625 55.078125 55.328125 
Q 55.078125 49.078125 51.53125 44.71875 
Q 48 40.375 41.703125 38.8125 
Q 48.828125 37.15625 52.796875 32.3125 
Q 56.78125 27.484375 56.78125 20.515625 
Q 56.78125 9.90625 50.3125 4.234375 
Q 43.84375 -1.421875 31.78125 -1.421875 
Q 19.734375 -1.421875 13.25 4.234375 
Q 6.78125 9.90625 6.78125 20.515625 
Q 6.78125 27.484375 10.78125 32.3125 
Q 14.796875 37.15625 21.921875 38.8125 
z
M 18.3125 54.390625 
Q 18.3125 48.734375 21.84375 45.5625 
Q 25.390625 42.390625 31.78125 42.390625 
Q 38.140625 42.390625 41.71875 45.5625 
Q 45.3125 48.734375 45.3125 54.390625 
Q 45.3125 60.0625 41.71875 63.234375 
Q 38.140625 66.40625 31.78125 66.40625 
Q 25.390625 66.40625 21.84375 63.234375 
Q 18.3125 60.0625 18.3125 54.390625 
z
" id="DejaVuSans-56"/>
       </defs>
       <use xlink:href="#DejaVuSans-48"/>
       <use x="63.623047" xlink:href="#DejaVuSans-46"/>
       <use x="95.410156" xlink:href="#DejaVuSans-56"/>
      </g>
     </g>
    </g>
    <g id="xtick_6">
     <g id="line2d_6">
      <g>
       <use style="stroke:#000000;stroke-width:0.8;" x="388.8" xlink:href="#m98ece6fdd5" y="252"/>
      </g>
     </g>
     <g id="text_6">
      <!-- 1.0 -->
      <g transform="translate(380.848437 266.598437)scale(0.1 -0.1)">
       <defs>
        <path d="M 12.40625 8.296875 
L 28.515625 8.296875 
L 28.515625 63.921875 
L 10.984375 60.40625 
L 10.984375 69.390625 
L 28.421875 72.90625 
L 38.28125 72.90625 
L 38.28125 8.296875 
L 54.390625 8.296875 
L 54.390625 0 
L 12.40625 0 
z
" id="DejaVuSans-49"/>
       </defs>
       <use xlink:href="#DejaVuSans-49"/>
       <use x="63.623047" xlink:href="#DejaVuSans-46"/>
       <use x="95.410156" xlink:href="#DejaVuSans-48"/>
      </g>
     </g>
    </g>
   </g>
   <g id="matplotlib.axis_2">
    <g id="ytick_1">
     <g id="line2d_7">
      <defs>
       <path d="M 0 0 
L -3.5 0 
" id="me31167567a" style="stroke:#000000;stroke-width:0.8;"/>
      </defs>
      <g>
       <use style="stroke:#000000;stroke-width:0.8;" x="54" xlink:href="#me31167567a" y="252"/>
      </g>
     </g>
     <g id="text_7">
      <!-- 0.0 -->
      <g transform="translate(31.096875 255.799219)scale(0.1 -0.1)">
       <use xlink:href="#DejaVuSans-48"/>
       <use x="63.623047" xlink:href="#DejaVuSans-46"/>
       <use x="95.410156" xlink:href="#DejaVuSans-48"/>
      </g>
     </g>
    </g>
    <g id="ytick_2">
     <g id="line2d_8">
      <g>
       <use style="stroke:#000000;stroke-width:0.8;" x="54" xlink:href="#me31167567a" y="208.512"/>
      </g>
     </g>
     <g id="text_8">
      <!-- 0.2 -->
      <g transform="translate(31.096875 212.311219)scale(0.1 -0.1)">
       <use xlink:href="#DejaVuSans-48"/>
       <use x="63.623047" xlink:href="#DejaVuSans-46"/>
       <use x="95.410156" xlink:href="#DejaVuSans-50"/>
      </g>
     </g>
    </g>
    <g id="ytick_3">
     <g id="line2d_9">
      <g>
       <use style="stroke:#000000;stroke-width:0.8;" x="54" xlink:href="#me31167567a" y="165.024"/>
      </g>
     </g>
     <g id="text_9">
      <!-- 0.4 -->
      <g transform="translate(31.096875 168.823219)scale(0.1 -0.1)">
       <use xlink:href="#DejaVuSans-48"/>
       <use x="63.623047" xlink:href="#DejaVuSans-46"/>
       <use x="95.410156" xlink:href="#DejaVuSans-52"/>
      </g>
     </g>
    </g>
    <g id="ytick_4">
     <g id="line2d_10">
      <g>
       <use style="stroke:#000000;stroke-width:0.8;" x="54" xlink:href="#me31167567a" y="121.536"/>
      </g>
     </g>
     <g id="text_10">
      <!-- 0.6 -->
      <g transform="translate(31.096875 125.335219)scale(0.1 -0.1)">
       <use xlink:href="#DejaVuSans-48"/>
       <use x="63.623047" xlink:href="#DejaVuSans-46"/>
       <use x="95.410156" xlink:href="#DejaVuSans-54"/>
      </g>
     </g>
    </g>
    <g id="ytick_5">
     <g id="line2d_11">
      <g>
       <use style="stroke:#000000;stroke-width:0.8;" x="54" xlink:href="#me31167567a" y="78.048"/>
      </g>
     </g>
     <g id="text_11">
      <!-- 0.8 -->
      <g transform="translate(31.096875 81.847219)scale(0.1 -0.1)">
       <use xlink:href="#DejaVuSans-48"/>
       <use x="63.623047" xlink:href="#DejaVuSans-46"/>
       <use x="95.410156" xlink:href="#DejaVuSans-56"/>
      </g>
     </g>
    </g>
    <g id="ytick_6">
     <g id="line2d_12">
      <g>
       <use style="stroke:#000000;stroke-width:0.8;" x="54" xlink:href="#me31167567a" y="34.56"/>
      </g>
     </g>
     <g id="text_12">
      <!-- 1.0 -->
      <g transform="translate(31.096875 38.359219)scale(0.1 -0.1)">
       <use xlink:href="#DejaVuSans-49"/>
       <use x="63.623047" xlink:href="#DejaVuSans-46"/>
       <use x="95.410156" xlink:href="#DejaVuSans-48"/>
      </g>
     </g>
    </g>
   </g>
   <g id="patch_3">
    <path d="M 54 252 
L 54 34.56 
" style="fill:none;stroke:#000000;stroke-linecap:square;stroke-linejoin:miter;stroke-width:0.8;"/>
   </g>
   <g id="patch_4">
    <path d="M 388.8 252 
L 388.8 34.56 
" style="fill:none;stroke:#000000;stroke-linecap:square;stroke-linejoin:miter;stroke-width:0.8;"/>
   </g>
   <g id="patch_5">
    <path d="M 54 252 
L 388.8 252 
" style="fill:none;stroke:#000000;stroke-linecap:square;stroke-linejoin:miter;stroke-width:0.8;"/>
   </g>
   <g id="patch_6">
    <path d="M 54 34.56 
L 388.8 34.56 
" style="fill:none;stroke:#000000;stroke-linecap:square;stroke-linejoin:miter;stroke-width:0.8;"/>
   </g>
   <g id="text_13">
    <!-- mu/one_peak_original -->
    <g transform="translate(155.487188 28.56)scale(0.12 -0.12)">
     <defs>
      <path d="M 52 44.1875 
Q 55.375 50.25 60.0625 53.125 
Q 64.75 56 71.09375 56 
Q 79.640625 56 84.28125 50.015625 
Q 88.921875 44.046875 88.921875 33.015625 
L 88.921875 0 
L 79.890625 0 
L 79.890625 32.71875 
Q 79.890625 40.578125 77.09375 44.375 
Q 74.3125 48.1875 68.609375 48.1875 
Q 61.625 48.1875 57.5625 43.546875 
Q 53.515625 38.921875 53.515625 30.90625 
L 53.515625 0 
L 44.484375 0 
L 44.484375 32.71875 
Q 44.484375 40.625 41.703125 44.40625 
Q 38.921875 48.1875 33.109375 48.1875 
Q 26.21875 48.1875 22.15625 43.53125 
Q 18.109375 38.875 18.109375 30.90625 
L 18.109375 0 
L 9.078125 0 
L 9.078125 54.6875 
L 18.109375 54.6875 
L 18.109375 46.1875 
Q 21.1875 51.21875 25.484375 53.609375 
Q 29.78125 56 35.6875 56 
Q 41.65625 56 45.828125 52.96875 
Q 50 49.953125 52 44.1875 
z
" id="DejaVuSans-109"/>
      <path d="M 8.5 21.578125 
L 8.5 54.6875 
L 17.484375 54.6875 
L 17.484375 21.921875 
Q 17.484375 14.15625 20.5 10.265625 
Q 23.53125 6.390625 29.59375 6.390625 
Q 36.859375 6.390625 41.078125 11.03125 
Q 45.3125 15.671875 45.3125 23.6875 
L 45.3125 54.6875 
L 54.296875 54.6875 
L 54.296875 0 
L 45.3125 0 
L 45.3125 8.40625 
Q 42.046875 3.421875 37.71875 1 
Q 33.40625 -1.421875 27.6875 -1.421875 
Q 18.265625 -1.421875 13.375 4.4375 
Q 8.5 10.296875 8.5 21.578125 
z
M 31.109375 56 
z
" id="DejaVuSans-117"/>
      <path d="M 25.390625 72.90625 
L 33.6875 72.90625 
L 8.296875 -9.28125 
L 0 -9.28125 
z
" id="DejaVuSans-47"/>
      <path d="M 30.609375 48.390625 
Q 23.390625 48.390625 19.1875 42.75 
Q 14.984375 37.109375 14.984375 27.296875 
Q 14.984375 17.484375 19.15625 11.84375 
Q 23.34375 6.203125 30.609375 6.203125 
Q 37.796875 6.203125 41.984375 11.859375 
Q 46.1875 17.53125 46.1875 27.296875 
Q 46.1875 37.015625 41.984375 42.703125 
Q 37.796875 48.390625 30.609375 48.390625 
z
M 30.609375 56 
Q 42.328125 56 49.015625 48.375 
Q 55.71875 40.765625 55.71875 27.296875 
Q 55.71875 13.875 49.015625 6.21875 
Q 42.328125 -1.421875 30.609375 -1.421875 
Q 18.84375 -1.421875 12.171875 6.21875 
Q 5.515625 13.875 5.515625 27.296875 
Q 5.515625 40.765625 12.171875 48.375 
Q 18.84375 56 30.609375 56 
z
" id="DejaVuSans-111"/>
      <path d="M 54.890625 33.015625 
L 54.890625 0 
L 45.90625 0 
L 45.90625 32.71875 
Q 45.90625 40.484375 42.875 44.328125 
Q 39.84375 48.1875 33.796875 48.1875 
Q 26.515625 48.1875 22.3125 43.546875 
Q 18.109375 38.921875 18.109375 30.90625 
L 18.109375 0 
L 9.078125 0 
L 9.078125 54.6875 
L 18.109375 54.6875 
L 18.109375 46.1875 
Q 21.34375 51.125 25.703125 53.5625 
Q 30.078125 56 35.796875 56 
Q 45.21875 56 50.046875 50.171875 
Q 54.890625 44.34375 54.890625 33.015625 
z
" id="DejaVuSans-110"/>
      <path d="M 56.203125 29.59375 
L 56.203125 25.203125 
L 14.890625 25.203125 
Q 15.484375 15.921875 20.484375 11.0625 
Q 25.484375 6.203125 34.421875 6.203125 
Q 39.59375 6.203125 44.453125 7.46875 
Q 49.3125 8.734375 54.109375 11.28125 
L 54.109375 2.78125 
Q 49.265625 0.734375 44.1875 -0.34375 
Q 39.109375 -1.421875 33.890625 -1.421875 
Q 20.796875 -1.421875 13.15625 6.1875 
Q 5.515625 13.8125 5.515625 26.8125 
Q 5.515625 40.234375 12.765625 48.109375 
Q 20.015625 56 32.328125 56 
Q 43.359375 56 49.78125 48.890625 
Q 56.203125 41.796875 56.203125 29.59375 
z
M 47.21875 32.234375 
Q 47.125 39.59375 43.09375 43.984375 
Q 39.0625 48.390625 32.421875 48.390625 
Q 24.90625 48.390625 20.390625 44.140625 
Q 15.875 39.890625 15.1875 32.171875 
z
" id="DejaVuSans-101"/>
      <path d="M 50.984375 -16.609375 
L 50.984375 -23.578125 
L -0.984375 -23.578125 
L -0.984375 -16.609375 
z
" id="DejaVuSans-95"/>
      <path d="M 18.109375 8.203125 
L 18.109375 -20.796875 
L 9.078125 -20.796875 
L 9.078125 54.6875 
L 18.109375 54.6875 
L 18.109375 46.390625 
Q 20.953125 51.265625 25.265625 53.625 
Q 29.59375 56 35.59375 56 
Q 45.5625 56 51.78125 48.09375 
Q 58.015625 40.1875 58.015625 27.296875 
Q 58.015625 14.40625 51.78125 6.484375 
Q 45.5625 -1.421875 35.59375 -1.421875 
Q 29.59375 -1.421875 25.265625 0.953125 
Q 20.953125 3.328125 18.109375 8.203125 
z
M 48.6875 27.296875 
Q 48.6875 37.203125 44.609375 42.84375 
Q 40.53125 48.484375 33.40625 48.484375 
Q 26.265625 48.484375 22.1875 42.84375 
Q 18.109375 37.203125 18.109375 27.296875 
Q 18.109375 17.390625 22.1875 11.75 
Q 26.265625 6.109375 33.40625 6.109375 
Q 40.53125 6.109375 44.609375 11.75 
Q 48.6875 17.390625 48.6875 27.296875 
z
" id="DejaVuSans-112"/>
      <path d="M 34.28125 27.484375 
Q 23.390625 27.484375 19.1875 25 
Q 14.984375 22.515625 14.984375 16.5 
Q 14.984375 11.71875 18.140625 8.90625 
Q 21.296875 6.109375 26.703125 6.109375 
Q 34.1875 6.109375 38.703125 11.40625 
Q 43.21875 16.703125 43.21875 25.484375 
L 43.21875 27.484375 
z
M 52.203125 31.203125 
L 52.203125 0 
L 43.21875 0 
L 43.21875 8.296875 
Q 40.140625 3.328125 35.546875 0.953125 
Q 30.953125 -1.421875 24.3125 -1.421875 
Q 15.921875 -1.421875 10.953125 3.296875 
Q 6 8.015625 6 15.921875 
Q 6 25.140625 12.171875 29.828125 
Q 18.359375 34.515625 30.609375 34.515625 
L 43.21875 34.515625 
L 43.21875 35.40625 
Q 43.21875 41.609375 39.140625 45 
Q 35.0625 48.390625 27.6875 48.390625 
Q 23 48.390625 18.546875 47.265625 
Q 14.109375 46.140625 10.015625 43.890625 
L 10.015625 52.203125 
Q 14.9375 54.109375 19.578125 55.046875 
Q 24.21875 56 28.609375 56 
Q 40.484375 56 46.34375 49.84375 
Q 52.203125 43.703125 52.203125 31.203125 
z
" id="DejaVuSans-97"/>
      <path d="M 9.078125 75.984375 
L 18.109375 75.984375 
L 18.109375 31.109375 
L 44.921875 54.6875 
L 56.390625 54.6875 
L 27.390625 29.109375 
L 57.625 0 
L 45.90625 0 
L 18.109375 26.703125 
L 18.109375 0 
L 9.078125 0 
z
" id="DejaVuSans-107"/>
      <path d="M 41.109375 46.296875 
Q 39.59375 47.171875 37.8125 47.578125 
Q 36.03125 48 33.890625 48 
Q 26.265625 48 22.1875 43.046875 
Q 18.109375 38.09375 18.109375 28.8125 
L 18.109375 0 
L 9.078125 0 
L 9.078125 54.6875 
L 18.109375 54.6875 
L 18.109375 46.1875 
Q 20.953125 51.171875 25.484375 53.578125 
Q 30.03125 56 36.53125 56 
Q 37.453125 56 38.578125 55.875 
Q 39.703125 55.765625 41.0625 55.515625 
z
" id="DejaVuSans-114"/>
      <path d="M 9.421875 54.6875 
L 18.40625 54.6875 
L 18.40625 0 
L 9.421875 0 
z
M 9.421875 75.984375 
L 18.40625 75.984375 
L 18.40625 64.59375 
L 9.421875 64.59375 
z
" id="DejaVuSans-105"/>
      <path d="M 45.40625 27.984375 
Q 45.40625 37.75 41.375 43.109375 
Q 37.359375 48.484375 30.078125 48.484375 
Q 22.859375 48.484375 18.828125 43.109375 
Q 14.796875 37.75 14.796875 27.984375 
Q 14.796875 18.265625 18.828125 12.890625 
Q 22.859375 7.515625 30.078125 7.515625 
Q 37.359375 7.515625 41.375 12.890625 
Q 45.40625 18.265625 45.40625 27.984375 
z
M 54.390625 6.78125 
Q 54.390625 -7.171875 48.1875 -13.984375 
Q 42 -20.796875 29.203125 -20.796875 
Q 24.46875 -20.796875 20.265625 -20.09375 
Q 16.0625 -19.390625 12.109375 -17.921875 
L 12.109375 -9.1875 
Q 16.0625 -11.328125 19.921875 -12.34375 
Q 23.78125 -13.375 27.78125 -13.375 
Q 36.625 -13.375 41.015625 -8.765625 
Q 45.40625 -4.15625 45.40625 5.171875 
L 45.40625 9.625 
Q 42.625 4.78125 38.28125 2.390625 
Q 33.9375 0 27.875 0 
Q 17.828125 0 11.671875 7.65625 
Q 5.515625 15.328125 5.515625 27.984375 
Q 5.515625 40.671875 11.671875 48.328125 
Q 17.828125 56 27.875 56 
Q 33.9375 56 38.28125 53.609375 
Q 42.625 51.21875 45.40625 46.390625 
L 45.40625 54.6875 
L 54.390625 54.6875 
z
" id="DejaVuSans-103"/>
      <path d="M 9.421875 75.984375 
L 18.40625 75.984375 
L 18.40625 0 
L 9.421875 0 
z
" id="DejaVuSans-108"/>
     </defs>
     <use xlink:href="#DejaVuSans-109"/>
     <use x="97.412109" xlink:href="#DejaVuSans-117"/>
     <use x="160.791016" xlink:href="#DejaVuSans-47"/>
     <use x="194.482422" xlink:href="#DejaVuSans-111"/>
     <use x="255.664062" xlink:href="#DejaVuSans-110"/>
     <use x="319.042969" xlink:href="#DejaVuSans-101"/>
     <use x="380.566406" xlink:href="#DejaVuSans-95"/>
     <use x="430.566406" xlink:href="#DejaVuSans-112"/>
     <use x="494.042969" xlink:href="#DejaVuSans-101"/>
     <use x="555.566406" xlink:href="#DejaVuSans-97"/>
     <use x="616.845703" xlink:href="#DejaVuSans-107"/>
     <use x="674.755859" xlink:href="#DejaVuSans-95"/>
     <use x="724.755859" xlink:href="#DejaVuSans-111"/>
     <use x="785.9375" xlink:href="#DejaVuSans-114"/>
     <use x="827.050781" xlink:href="#DejaVuSans-105"/>
     <use x="854.833984" xlink:href="#DejaVuSans-103"/>
     <use x="918.310547" xlink:href="#DejaVuSans-105"/>
     <use x="946.09375" xlink:href="#DejaVuSans-110"/>
     <use x="1009.472656" xlink:href="#DejaVuSans-97"/>
     <use x="1070.751953" xlink:href="#DejaVuSans-108"/>
    </g>
   </g>
  </g>
 </g>
 <defs>
  <clipPath id="pf3ad6263b7">
   <rect height="217.44" width="334.8" x="54" y="34.56"/>
  </clipPath>
 </defs>
</svg>
